<svg aria-hidden="true" style="position: absolute; width: 0; height: 0; overflow: hidden;" version="1.1" xmlns="http://www.w3.org/2000/svg" xmlns:xlink="http://www.w3.org/1999/xlink">
<defs>
<symbol id="icon-Logo-1" viewBox="0 0 62 32">
<path fill="#fff" style="fill: var(--color1, #fff)" d="M16.251 11.439l4.876-10.57h-9.754l4.877 10.57zM20.28 1.418l-4.029 8.712-4.015-8.712h8.044zM0.044 0.882h7.539v2.617h-4.833v1.308h4.015v2.484h-4.015v1.323h4.833v2.617h-7.539v-10.348zM13.030 26.541c-1.795 0-2.981-0.801-3.557-2.403-0.233-0.658-0.349-1.414-0.349-2.272 0-1.443 0.278-2.631 0.833-3.564 0.661-1.094 1.685-1.641 3.072-1.641h0.568v9.881h-0.568zM15.638 21.618c1.796 0 2.981 0.801 3.557 2.403 0.232 0.657 0.349 1.414 0.351 2.271 0 1.443-0.279 2.631-0.836 3.565-0.661 1.094-1.685 1.641-3.072 1.641h-0.567v-9.883h0.567zM25.022 0.879h7.539v2.617h-4.832v1.309h4.014v2.483h-4.015v1.323h4.833v2.617h-7.539v-10.347zM37.201 0.868v10.346l8.356 0.002v-10.348h-0.55v7.033l-7.226-7.033h-0.58zM53.452 11.229v-7.732h-3.911v-2.617h8.356v2.617h-3.91v7.732h-0.535zM6.051 19.020c-0.387-0.198-0.907-0.297-1.562-0.297h-4.342v10.348h4.58c0.446 0 0.803-0.030 1.070-0.089 0.254-0.055 0.5-0.145 0.729-0.268 0.435-0.248 0.788-0.592 1.041-1.005l0.007-0.013c0.261-0.427 0.397-0.919 0.394-1.42 0-0.005 0-0.011 0-0.017 0-0.593-0.208-1.137-0.554-1.564l0.004 0.005c-0.343-0.444-0.802-0.783-1.332-0.974l-0.020-0.006c0.437-0.231 0.793-0.562 1.048-0.963l0.007-0.011c0.255-0.403 0.389-0.869 0.386-1.345 0-0.014 0-0.030 0-0.047 0-1.019-0.587-1.901-1.442-2.326l-0.015-0.007zM21.923 28.321c-0.778-0.679-1.162-1.698-1.152-3.055h2.424c-0.010 0.565 0.158 0.996 0.506 1.293 0.346 0.297 0.832 0.446 1.455 0.446 0.516 0 0.923-0.085 1.22-0.253 0.268-0.142 0.447-0.418 0.447-0.737 0-0.013-0-0.026-0.001-0.038l0 0.002c0-0.288-0.151-0.495-0.454-0.625-0.288-0.124-0.589-0.217-0.898-0.276 0.134 0.015-0.053-0.019-0.24-0.053l-0.311-0.046c-0.758-0.142-1.422-0.331-2.059-0.572l0.082 0.027c-0.556-0.21-1.026-0.541-1.394-0.962l-0.003-0.004c-0.377-0.436-0.566-1.012-0.566-1.724 0-0.714 0.189-1.321 0.566-1.822 0.385-0.502 0.896-0.888 1.486-1.115l0.023-0.008c0.594-0.235 1.282-0.372 2.002-0.372 0.020 0 0.041 0 0.061 0l-0.003-0c0.901 0 1.683 0.168 2.341 0.506 0.666 0.347 1.198 0.872 1.544 1.513l0.010 0.019c0.175 0.289 0.291 0.609 0.343 0.943 0.039 0.293 0.059 0.588 0.059 0.885h-2.424c0-0.535-0.143-0.929-0.43-1.182-0.288-0.253-0.733-0.379-1.339-0.379-0.485 0-0.862 0.084-1.129 0.253-0.268 0.168-0.403 0.396-0.403 0.683 0 0.317 0.18 0.55 0.537 0.699 0.38 0.156 0.832 0.295 1.3 0.393l0.052 0.009c0.892 0.178 1.589 0.349 2.089 0.512 0.505 0.166 0.955 0.468 1.301 0.87 0.366 0.416 0.55 1.001 0.55 1.755 0 0.712-0.198 1.327-0.595 1.843-0.396 0.516-0.919 0.91-1.569 1.183-0.608 0.259-1.315 0.409-2.057 0.409-0.016 0-0.033-0-0.049-0l0.003 0c-1.437-0.002-2.545-0.343-3.324-1.022zM35.61 21.34v7.732h0.535v-7.732h3.91v-2.617h-8.354v2.617h3.91zM42.866 18.723h7.539v2.617h-4.832v1.309h4.014v2.483h-4.015v1.323h4.833v2.617h-7.539v-10.348zM53.614 29.071h7.956l-2.632-3.673c0.737-0.204 1.355-0.631 1.793-1.204l0.006-0.008c0.445-0.555 0.713-1.268 0.713-2.043 0-0.011-0-0.022-0-0.033v0.002c0-0.011 0-0.023 0-0.036 0-0.616-0.166-1.193-0.455-1.689l0.009 0.016c-0.3-0.516-0.724-0.931-1.233-1.212l-0.017-0.008c-0.545-0.307-1.249-0.46-2.111-0.46h-4.030v10.348zM54.165 24.967v-5.337l3.821 5.337h-3.821zM60.529 28.521h-6.364v-3.004h3.733l0.46-0.014 2.171 3.018zM58.596 24.923l-4.044-5.65h3.107c0.704 0 1.274 0.108 1.71 0.327 0.47 0.223 0.862 0.58 1.129 1.026 0.268 0.449 0.408 0.963 0.403 1.486 0 0.009 0 0.020 0 0.030 0 0.682-0.248 1.306-0.658 1.787l0.003-0.004c-0.418 0.514-1.001 0.867-1.652 0.996z"></path>
</symbol>
</defs>
</svg>
